<mxfile modified="2020-11-24T15:33:23.448Z" host="app.diagrams.net" agent="5.0 (Macintosh; Intel Mac OS X 10_13_6) AppleWebKit/537.36 (KHTML, like Gecko) Chrome/83.0.4103.116 Safari/537.36" etag="l3aMzgbToBGY6CMMysWI" version="13.5.8" type="github">
  <diagram id="Ht1M8jgEwFfnCIfOTk4-" name="Page-1">
    <mxGraphModel dx="1186" dy="614" grid="1" gridSize="10" guides="1" tooltips="1" connect="1" arrows="1" fold="1" page="1" pageScale="1" pageWidth="1169" pageHeight="827" math="0" shadow="0">
      <root>
        <mxCell id="0" />
        <mxCell id="1" parent="0" />
        <mxCell id="-QjtrjUzRDEMRZ5MF8oH-47" value="HLD-PasteBin" style="text;html=1;resizable=0;points=[];autosize=1;align=left;verticalAlign=top;spacingTop=-4;fontSize=30;fontStyle=1" parent="1" vertex="1">
          <mxGeometry x="56.5" y="64.5" width="220" height="40" as="geometry" />
        </mxCell>
        <mxCell id="SCVMTBWpLvtzJIhz15lM-1" value="" style="line;strokeWidth=2;html=1;fontSize=14;" parent="1" vertex="1">
          <mxGeometry x="52.5" y="139.5" width="1060" height="10" as="geometry" />
        </mxCell>
        <mxCell id="gh6vLpysJ0m25ZYw-vgK-1" value="" style="ellipse;shape=cloud;whiteSpace=wrap;html=1;" vertex="1" parent="1">
          <mxGeometry x="53" y="240" width="120" height="80" as="geometry" />
        </mxCell>
        <mxCell id="gh6vLpysJ0m25ZYw-vgK-2" value="Client" style="text;html=1;align=center;verticalAlign=middle;resizable=0;points=[];autosize=1;" vertex="1" parent="1">
          <mxGeometry x="95" y="330" width="50" height="20" as="geometry" />
        </mxCell>
        <mxCell id="gh6vLpysJ0m25ZYw-vgK-3" value="" style="outlineConnect=0;fontColor=#232F3E;gradientColor=none;fillColor=#232F3E;strokeColor=none;dashed=0;verticalLabelPosition=bottom;verticalAlign=top;align=center;html=1;fontSize=12;fontStyle=0;aspect=fixed;pointerEvents=1;shape=mxgraph.aws4.traditional_server;" vertex="1" parent="1">
          <mxGeometry x="355" y="240" width="45" height="78" as="geometry" />
        </mxCell>
        <mxCell id="gh6vLpysJ0m25ZYw-vgK-4" value="" style="outlineConnect=0;fontColor=#232F3E;gradientColor=none;fillColor=#232F3E;strokeColor=none;dashed=0;verticalLabelPosition=bottom;verticalAlign=top;align=center;html=1;fontSize=12;fontStyle=0;aspect=fixed;pointerEvents=1;shape=mxgraph.aws4.generic_database;" vertex="1" parent="1">
          <mxGeometry x="327" y="400" width="59" height="78" as="geometry" />
        </mxCell>
        <mxCell id="gh6vLpysJ0m25ZYw-vgK-5" value="" style="outlineConnect=0;fontColor=#232F3E;gradientColor=none;fillColor=#232F3E;strokeColor=none;dashed=0;verticalLabelPosition=bottom;verticalAlign=top;align=center;html=1;fontSize=12;fontStyle=0;aspect=fixed;pointerEvents=1;shape=mxgraph.aws4.generic_database;" vertex="1" parent="1">
          <mxGeometry x="352" y="450" width="59" height="78" as="geometry" />
        </mxCell>
        <mxCell id="gh6vLpysJ0m25ZYw-vgK-6" value="" style="outlineConnect=0;fontColor=#232F3E;gradientColor=none;fillColor=#232F3E;strokeColor=none;dashed=0;verticalLabelPosition=bottom;verticalAlign=top;align=center;html=1;fontSize=12;fontStyle=0;aspect=fixed;pointerEvents=1;shape=mxgraph.aws4.generic_database;" vertex="1" parent="1">
          <mxGeometry x="382" y="400" width="59" height="78" as="geometry" />
        </mxCell>
        <mxCell id="gh6vLpysJ0m25ZYw-vgK-7" value="Metadata Storage" style="text;html=1;align=center;verticalAlign=middle;resizable=0;points=[];autosize=1;" vertex="1" parent="1">
          <mxGeometry x="327" y="550" width="110" height="20" as="geometry" />
        </mxCell>
        <mxCell id="gh6vLpysJ0m25ZYw-vgK-8" value="" style="outlineConnect=0;fontColor=#232F3E;gradientColor=none;fillColor=#277116;strokeColor=none;dashed=0;verticalLabelPosition=bottom;verticalAlign=top;align=center;html=1;fontSize=12;fontStyle=0;aspect=fixed;pointerEvents=1;shape=mxgraph.aws4.volume_gateway;" vertex="1" parent="1">
          <mxGeometry x="570" y="240" width="65" height="78" as="geometry" />
        </mxCell>
        <mxCell id="gh6vLpysJ0m25ZYw-vgK-9" value="Object Storage" style="text;html=1;align=center;verticalAlign=middle;resizable=0;points=[];autosize=1;" vertex="1" parent="1">
          <mxGeometry x="550" y="320" width="100" height="20" as="geometry" />
        </mxCell>
        <mxCell id="gh6vLpysJ0m25ZYw-vgK-10" value="" style="endArrow=classic;html=1;" edge="1" parent="1" source="gh6vLpysJ0m25ZYw-vgK-3" target="gh6vLpysJ0m25ZYw-vgK-8">
          <mxGeometry width="50" height="50" relative="1" as="geometry">
            <mxPoint x="471" y="340" as="sourcePoint" />
            <mxPoint x="521" y="290" as="targetPoint" />
          </mxGeometry>
        </mxCell>
        <mxCell id="gh6vLpysJ0m25ZYw-vgK-11" value="" style="endArrow=classic;html=1;exitX=0.875;exitY=0.5;exitDx=0;exitDy=0;exitPerimeter=0;" edge="1" parent="1" source="gh6vLpysJ0m25ZYw-vgK-1" target="gh6vLpysJ0m25ZYw-vgK-3">
          <mxGeometry width="50" height="50" relative="1" as="geometry">
            <mxPoint x="210" y="280" as="sourcePoint" />
            <mxPoint x="360" y="290" as="targetPoint" />
          </mxGeometry>
        </mxCell>
        <mxCell id="gh6vLpysJ0m25ZYw-vgK-12" value="" style="endArrow=classic;html=1;" edge="1" parent="1" source="gh6vLpysJ0m25ZYw-vgK-3">
          <mxGeometry width="50" height="50" relative="1" as="geometry">
            <mxPoint x="370" y="340" as="sourcePoint" />
            <mxPoint x="377" y="410" as="targetPoint" />
            <Array as="points">
              <mxPoint x="377" y="380" />
              <mxPoint x="377" y="410" />
            </Array>
          </mxGeometry>
        </mxCell>
        <mxCell id="gh6vLpysJ0m25ZYw-vgK-13" value="Application Server" style="text;html=1;align=center;verticalAlign=middle;resizable=0;points=[];autosize=1;" vertex="1" parent="1">
          <mxGeometry x="327" y="330" width="110" height="20" as="geometry" />
        </mxCell>
      </root>
    </mxGraphModel>
  </diagram>
</mxfile>
